<svg width="70" height="70" viewBox="0 0 70 70" fill="none" xmlns="http://www.w3.org/2000/svg">
<circle cx="35" cy="35" r="35" fill="#4F80FF"/>
<path d="M48.5 21H20.5C18.568 21 17 22.568 17 24.5V45.5C17 47.432 18.568 49 20.5 49H22.25V56L29.25 49H48.5C50.432 49 52 47.432 52 45.5V24.5C52 22.568 50.432 21 48.5 21ZM39.75 27.5625C40.9557 27.5625 41.9375 28.5425 41.9375 29.75C41.9375 30.9575 40.9557 31.9375 39.75 31.9375C38.5442 31.9375 37.5625 30.9575 37.5625 29.75C37.5625 28.5425 38.5442 27.5625 39.75 27.5625ZM29.25 27.5625C30.4557 27.5625 31.4375 28.5425 31.4375 29.75C31.4375 30.9575 30.4557 31.9375 29.25 31.9375C28.0442 31.9375 27.0625 30.9575 27.0625 29.75C27.0625 28.5425 28.0442 27.5625 29.25 27.5625ZM34.5 42C30.9125 42 27.8395 39.837 26.4885 36.75H42.5115C41.1605 39.837 38.0875 42 34.5 42Z" fill="white"/>
</svg>
